HIERARCHY
ROOT Hips
{
  OFFSET -13.859 91.1892 21.8595
  CHANNELS 6 Xposition Yposition Zposition Zrotation Xrotation Yrotation
  JOINT Spine
  {
    OFFSET 10.8089 -0.851415 0
    CHANNELS 3 Zrotation Xrotation Yrotation
    JOINT Spine1
    {
      OFFSET 18.8753 3.80116 0
      CHANNELS 3 Zrotation Xrotation Yrotation
      JOINT Spine2
      {
        OFFSET 13.4073 0.420477 0
        CHANNELS 3 Zrotation Xrotation Yrotation
        JOINT LeftShoulder
        {
          OFFSET 11.8837 -2.73209 -3.78198
          CHANNELS 3 Zrotation Xrotation Yrotation
          JOINT LeftArm
          {
            OFFSET 15.7849 0 0
            CHANNELS 3 Zrotation Xrotation Yrotation
            JOINT LeftForeArm
            {
              OFFSET 30.3399 0 0
              CHANNELS 3 Zrotation Xrotation Yrotation
              JOINT LeftHand
              {
                OFFSET 26.9751 0 0
                CHANNELS 3 Zrotation Xrotation Yrotation
                End Site
                {
                  OFFSET 8 0 0
                }
              }
            }
          }
        }
        JOINT RightShoulder
        {
          OFFSET 11.8838 -2.7321 3.782
          CHANNELS 3 Zrotation Xrotation Yrotation
          JOINT RightArm
          {
            OFFSET -15.7848 0 0
            CHANNELS 3 Zrotation Xrotation Yrotation
            JOINT RightForeArm
            {
              OFFSET -30.34 0 0
              CHANNELS 3 Zrotation Xrotation Yrotation
              JOINT RightHand
              {
                OFFSET -26.9752 2.55532e-05 0
                CHANNELS 3 Zrotation Xrotation Yrotation
                End Site
                {
                  OFFSET -8 0 0
                }
              }
            }
          }
        }
        JOINT Neck
        {
          OFFSET 16.5588 -0.355317 0
          CHANNELS 3 Zrotation Xrotation Yrotation
          JOINT Head
          {
            OFFSET 9.28362 0.364158 0
            CHANNELS 3 Zrotation Xrotation Yrotation
            End Site
            {
              OFFSET 5.28361 0.364157 0
            }
          }
        }
      }
    }
  }
  JOINT LeftUpLeg
  {
    OFFSET -1.44882 -0.531424 -9.00581
    CHANNELS 3 Zrotation Xrotation Yrotation
    JOINT LeftLeg
    {
      OFFSET -42.572 0 0
      CHANNELS 3 Zrotation Xrotation Yrotation
      JOINT LeftFoot
      {
        OFFSET -40.1967 0 0
        CHANNELS 3 Zrotation Xrotation Yrotation
        JOINT LeftToe
        {
          OFFSET -10.4538 -16.5779 0.0801573
          CHANNELS 3 Zrotation Xrotation Yrotation
          End Site
          {
            OFFSET 3 0 0
          }
        }
      }
    }
  }
  JOINT RightUpLeg
  {
    OFFSET -1.44865 -0.531428 9.0058
    CHANNELS 3 Zrotation Xrotation Yrotation
    JOINT RightLeg
    {
      OFFSET 42.5723 0 0
      CHANNELS 3 Zrotation Xrotation Yrotation
      JOINT RightFoot
      {
        OFFSET 40.1968 0 -1.14441e-05
        CHANNELS 3 Zrotation Xrotation Yrotation
        JOINT RightToe
        {
          OFFSET 10.4538 16.5778 -0.0801582
          CHANNELS 3 Zrotation Xrotation Yrotation
          End Site
          {
            OFFSET -3 0 0
          }
        }
      }
    }
  }
}
MOTION
Frames:	9
Frame Time:	0.0333333
8.81907 91.6852 32.7689 -84.1925 -40.0514 -177.845 -6.95512 2.34583 -0.182843 14.5124 4.45919 -1.50495 3.23541 4.381 -1.71974 -6.99163 30.213 98.401 -25.8859 11.9167 84.1387 -17.4096 -5.31172 -7.71437 -12 -61.5274 -4.2927 174.66 28.7385 95.6185 -43.871 7.48569 85.3852 -31.5096 -3.55263 -16.5323 -13.6432 -68.3904 -9.982 -12.5404 -4.42234 7.76343 -15.1291 -11.7327 -7.18002 36.1814 2.57813 -3.53856 -36.3158 -5.3297 -0.657696 -9.82151 -2.1246 -2.19662 -91.8836 0.00394553 0.00895438 176.779 3.39368 1.10899 -43.7751 -5.12709 -4.05999 -35.1895 -10.3405 -10.1597 -91.8836 0.00394166 0.00895438 
5.52961 92.137 37.5066 -86.3257 -38.9584 179.697 -7.43005 2.06641 0.0759311 13.5439 4.04776 -0.848424 2.26615 4.00186 -1.04399 -7.16374 30.124 98.5785 -24.5903 10.3811 83.0811 -17.2037 -5.32823 -7.63752 -12.3206 -63.0837 -4.75986 174.42 28.7816 95.9156 -41 7.27494 85.7152 -28.2958 -4.04924 -15.1017 -13.0095 -67.6066 -9.27926 -12.3295 -3.84785 7.66045 -12.9702 -10.9043 -6.66169 32.6032 6.9995 -3.39246 -38.7172 -5.37531 -1.0984 -7.85335 -4.79937 -3.39126 -91.8836 0.00394553 0.00895438 -176.007 3.43377 -0.279232 -59.6706 -3.01894 -5.69681 -24.85 -8.68817 -6.77908 -91.8836 0.00394166 0.00895438 
2.54787 92.731 42.2828 -86.6284 -39.3588 178.477 -7.55786 1.64018 0.231213 13.2719 3.29561 -0.337255 1.99216 3.27538 -0.496813 -7.40606 30.0142 98.9098 -24.8727 8.14206 82.0576 -15.7868 -5.40619 -7.07762 -11.7825 -62.1976 -4.17429 174.103 28.7893 96.32 -36.8718 6.54568 84.6834 -23.7437 -4.74567 -12.8845 -12.0155 -65.4138 -8.71868 -12.0219 -3.67682 8.02408 -12.6544 -10.6503 -6.28321 28.5205 9.05364 -1.41604 -39.143 -5.50311 -1.23297 -4.31039 -5.64736 -3.5313 -91.8836 0.00394553 0.00895438 -167.151 5.74964 -2.62529 -70.511 -1.19244 -6.26859 -14.5027 -0.691521 -1.5692 -91.8836 0.00394166 0.00895438 
-0.503986 93.0932 47.05 -86.6388 -40.6581 177.372 -7.45868 1.04309 0.262598 13.4586 2.15127 0.0084196 2.17636 2.14917 -0.0959473 -7.60997 29.8979 99.1431 -25.1739 5.81453 81.1234 -13.8262 -5.54091 -6.26533 -10.348 -57.6218 -2.55821 173.972 28.8333 96.5659 -34.7175 7.29802 84.1043 -21.1003 -5.04282 -11.6228 -11.4912 -64.7699 -8.00857 -12.6014 -3.49132 8.42588 -13.2013 -10.3556 -5.43134 24.024 8.99911 1.36631 -38.5475 -5.66713 -1.22084 -0.921114 -5.40506 -3.22284 -91.8836 0.00394553 0.00895438 -159.456 7.96648 -5.00384 -75.2748 -0.411102 -6.18656 -7.56104 3.60686 -0.223919 -91.8836 0.00394166 0.00895438 
-3.54288 93.2111 51.7061 -86.2882 -41.6147 175.63 -7.39085 0.708398 0.529337 13.5865 1.63021 0.686434 2.30323 1.66157 0.606565 -7.67271 29.8529 99.1621 -25.3483 3.49218 80.9784 -13.9538 -5.54623 -6.33581 -9.15052 -52.9579 -1.1757 174.014 28.9406 96.5725 -30.9658 9.46375 83.2406 -20.5405 -5.16163 -11.1619 -10.4549 -61.4892 -7.05436 -12.7286 -3.42732 8.65234 -13.8009 -10.274 -4.98133 20.2095 8.73591 4.69039 -38.1322 -5.76059 -1.26935 2.27163 -4.86588 -2.84717 -91.8836 0.00394553 0.00895438 -151.895 8.59739 -7.61916 -75.5886 -0.35977 -5.81277 -3.20007 3.25378 -0.62703 -91.8836 0.00394166 0.00895438 
-6.73602 93.0346 56.1594 -86.1229 -43.3545 175.156 -7.44034 0.35083 0.568702 13.4864 0.954692 0.93553 2.20226 0.998942 0.888153 -7.65446 29.7385 99.0581 -28.8232 1.17578 80.7601 -14.7785 -5.5183 -6.73298 -9.23147 -54.7161 -1.47986 174.151 28.9888 96.4736 -30.9233 12.106 83.1223 -21.2443 -5.08231 -11.4064 -11.689 -64.7292 -8.13327 -12.0317 -3.40839 8.532 -14.4441 -10.3887 -4.91379 16.5968 8.04755 6.51631 -38.4574 -5.73981 -1.5255 5.8744 -4.84063 -2.63582 -91.8836 0.00394553 0.00895438 -146.085 9.78893 -8.61161 -71.8119 -0.862511 -5.31308 0.86249 2.16966 -1.07683 -91.8836 0.00394166 0.00895438 
-10.0333 92.8438 60.3781 -85.4514 -44.4929 175.493 -7.41851 0.132893 0.460532 13.532 0.479743 0.830306 2.24761 0.519445 0.806091 -7.46029 29.64 98.819 -36.3876 0.425609 80.3863 -17.1831 -5.38602 -7.80102 -11.7608 -62.6918 -4.31277 174.232 28.9891 96.3886 -30.2617 14.2794 82.3677 -21.5258 -5.06068 -11.4379 -12.7069 -66.8087 -9.05292 -11.6765 -3.36215 8.72797 -14.1919 -10.2406 -4.93815 13.3021 8.31061 7.23473 -37.8475 -5.79678 -1.61652 7.46656 -7.0666 -2.97067 -91.8836 0.00394553 0.00895438 -141.625 10.5505 -8.54467 -63.9367 -1.82298 -4.5691 2.44113 2.47714 -1.07809 -91.8836 0.00394166 0.00895438 
-13.3773 92.8764 64.5032 -84.3287 -46.2831 176.374 -7.34524 -0.189869 0.345497 13.6812 -0.20168 0.762528 2.39669 -0.164477 0.771413 -7.19007 29.5293 98.4943 -42.5469 -0.162623 79.7509 -20.5378 -5.16414 -9.28124 -14.2272 -67.7365 -7.08633 174.333 28.995 96.2596 -29.1948 16.1216 81.92 -21.9883 -5.02864 -11.5543 -12.5074 -66.3984 -8.82858 -11.3788 -3.24198 8.54533 -13.5486 -10.144 -4.78596 8.91571 8.37248 7.55578 -34.8501 -6.06027 -1.28262 8.60979 -6.9194 -2.84698 -91.8836 0.00394553 0.00895438 -139.349 11.2423 -8.69696 -51.685 -3.11717 -3.37132 0.549986 6.27653 -0.148412 -91.8836 0.00394166 0.00895438 
-16.8088 92.9805 68.6143 -83.334 -48.0498 177.043 -7.23109 -0.577976 0.224205 13.9133 -1.01279 0.715523 2.62926 -0.9769 0.763799 -6.89558 29.47 98.1672 -46.508 -0.462263 79.195 -24.5132 -4.81206 -11.0333 -16.1656 -70.2985 -9.17844 174.372 28.9953 96.1648 -28.1472 17.2947 81.1194 -21.5808 -5.08258 -11.285 -11.8335 -65.2704 -8.13428 -11.376 -3.22567 8.80313 -13.0211 -9.93442 -4.98494 3.74291 9.01945 7.68157 -30.4294 -6.41942 -0.719758 8.54711 -7.8805 -2.9797 -91.8836 0.00394553 0.00895438 -139.433 9.99944 -8.64177 -36.5722 -4.30841 -1.68906 -3.28808 10.8974 1.65833 -91.8836 0.00394166 0.00895438 
